<?xml version="1.0" encoding="UTF-8"?>
<svg width="16px" height="17px" viewBox="0 0 16 17" version="1.1" xmlns="http://www.w3.org/2000/svg" xmlns:xlink="http://www.w3.org/1999/xlink">
    <!-- Generator: Sketch 60 (88103) - https://sketch.com -->
    <title>Icons/visible Copy 14</title>
    <desc>Created with Sketch.</desc>
    <g id="Page-1" stroke="none" stroke-width="1" fill="none" fill-rule="evenodd">
        <g id="Иконки" transform="translate(-54.000000, -182.000000)">
            <g id="Icons/calendar" transform="translate(50.000000, 179.000000)">
                <g id="Group" transform="translate(4.000000, 3.000000)">
                    <path d="M0.5,6.5 L0.5,15 C0.5,15.8284271 1.17157288,16.5 2,16.5 L14,16.5 C14.8284271,16.5 15.5,15.8284271 15.5,15 L15.5,6.5 L0.5,6.5 Z" id="Rectangle" stroke="#95969E"></path>
                    <path d="M0.5,6.5 L15.5,6.5 L15.5,4 C15.5,3.17157288 14.8284271,2.5 14,2.5 L2,2.5 C1.17157288,2.5 0.5,3.17157288 0.5,4 L0.5,6.5 Z" id="Rectangle-Copy-6" stroke="#95969E"></path>
                    <rect id="Rectangle" fill="#95969E" x="3" y="0" width="1" height="3" rx="0.5"></rect>
                    <rect id="Rectangle-Copy-7" fill="#95969E" x="12" y="0" width="1" height="3" rx="0.5"></rect>
                    <polygon id="Rectangle" fill="#95969E" points="10 7 11 7 11 16 10 16"></polygon>
                    <rect id="Rectangle-Copy-2" fill="#95969E" x="0" y="11" width="16" height="1"></rect>
                    <polygon id="Rectangle-Copy" fill="#95969E" points="5 7 6 7 6 16 5 16"></polygon>
                </g>
            </g>
        </g>
    </g>
</svg>