<?xml version="1.0" encoding="UTF-8"?>
<!DOCTYPE svg PUBLIC "-//W3C//DTD SVG 1.1//EN" "http://www.w3.org/Graphics/SVG/1.1/DTD/svg11.dtd">
<svg xmlns="http://www.w3.org/2000/svg" version="1.1" width="30px" height="30px" style="shape-rendering:geometricPrecision; text-rendering:geometricPrecision; image-rendering:optimizeQuality; fill-rule:evenodd; clip-rule:evenodd" xmlns:xlink="http://www.w3.org/1999/xlink">
<g><path style="opacity:0.98" fill="#f7cb76" d="M 8.5,-0.5 C 8.83333,-0.5 9.16667,-0.5 9.5,-0.5C 10.0553,1.72876 11.3886,3.39542 13.5,4.5C 11.6095,5.4238 10.1095,6.75713 9,8.5C 7.89045,6.75713 6.39045,5.4238 4.5,4.5C 6.55218,3.38921 7.88552,1.72254 8.5,-0.5 Z"/></g>
<g><path style="opacity:0.743" fill="#f5c375" d="M 3.5,7.5 C 4.9616,8.45773 6.29493,9.62439 7.5,11C 5.66667,11.5 4.5,12.6667 4,14.5C 3.5,12.6667 2.33333,11.5 0.5,11C 1.7101,9.9609 2.7101,8.79423 3.5,7.5 Z"/></g>
<g><path style="opacity:0.455" fill="#f6c97f" d="M 16.5,19.5 C 20.3916,23.1994 24.2249,23.1994 28,19.5C 27.6709,24.345 25.1709,27.6783 20.5,29.5C 18.8333,29.5 17.1667,29.5 15.5,29.5C 5.70142,24.8066 4.03476,17.9733 10.5,9C 13.8809,6.75515 17.5475,6.08849 21.5,7C 16.6168,9.9268 14.9501,14.0935 16.5,19.5 Z"/></g>
<g><path style="opacity:1" fill="#feeca2" d="M 15.5,8.5 C 8.53987,14.5085 8.8732,20.0085 16.5,25C 18.8098,25.4966 21.1432,25.6633 23.5,25.5C 16.6841,29.3028 11.5175,27.6361 8,20.5C 7.22082,14.3824 9.72082,10.3824 15.5,8.5 Z"/></g>
<g><path style="opacity:1" fill="#fef7d9" d="M 15.5,8.5 C 16.0431,8.55999 16.3764,8.89333 16.5,9.5C 13.9134,12.9819 13.9134,16.3152 16.5,19.5C 16.4142,20.4959 16.7476,21.3292 17.5,22C 19.7148,23.0438 22.0481,23.7105 24.5,24C 23.944,24.3826 23.6107,24.8826 23.5,25.5C 21.1432,25.6633 18.8098,25.4966 16.5,25C 8.8732,20.0085 8.53987,14.5085 15.5,8.5 Z"/></g>
</svg>
