<?xml version="1.0" encoding="UTF-8"?>
<!DOCTYPE svg PUBLIC "-//W3C//DTD SVG 1.1//EN" "http://www.w3.org/Graphics/SVG/1.1/DTD/svg11.dtd">
<svg xmlns="http://www.w3.org/2000/svg" version="1.1" width="30px" height="30px" style="shape-rendering:geometricPrecision; text-rendering:geometricPrecision; image-rendering:optimizeQuality; fill-rule:evenodd; clip-rule:evenodd" xmlns:xlink="http://www.w3.org/1999/xlink">
<g><path style="opacity:0.506" fill="#c1a351" d="M 13.5,-0.5 C 14.1667,-0.5 14.8333,-0.5 15.5,-0.5C 16.3697,1.59877 17.703,1.93211 19.5,0.5C 20.9512,2.55893 22.9512,3.55893 25.5,3.5C 25.4411,6.04884 26.4411,8.04884 28.5,9.5C 27.0679,11.297 27.4012,12.6303 29.5,13.5C 29.5,14.1667 29.5,14.8333 29.5,15.5C 27.4012,16.3697 27.0679,17.703 28.5,19.5C 26.4411,20.9512 25.4411,22.9512 25.5,25.5C 22.9512,25.4411 20.9512,26.4411 19.5,28.5C 17.703,27.0679 16.3697,27.4012 15.5,29.5C 14.8333,29.5 14.1667,29.5 13.5,29.5C 12.6303,27.4012 11.297,27.0679 9.5,28.5C 8.04884,26.4411 6.04884,25.4411 3.5,25.5C 3.55893,22.9512 2.55893,20.9512 0.5,19.5C 1.93211,17.703 1.59877,16.3697 -0.5,15.5C -0.5,14.8333 -0.5,14.1667 -0.5,13.5C 1.59877,12.6303 1.93211,11.297 0.5,9.5C 2.55893,8.04884 3.55893,6.04884 3.5,3.5C 6.04884,3.55893 8.04884,2.55893 9.5,0.5C 11.297,1.93211 12.6303,1.59877 13.5,-0.5 Z"/></g>
<g><path style="opacity:1" fill="#fbe99e" d="M 13.5,1.5 C 15.0174,1.51056 16.1841,2.17723 17,3.5C 18.0113,2.66337 19.1779,2.33003 20.5,2.5C 20.5,3.5 20.5,4.5 20.5,5.5C 21.5,5.5 22.5,5.5 23.5,5.5C 23.5,6.5 23.5,7.5 23.5,8.5C 26.2048,8.38021 26.8715,9.38021 25.5,11.5C 26.1667,12.5 26.8333,13.5 27.5,14.5C 27.0759,17.7012 25.7425,20.7012 23.5,23.5C 20.5927,25.5008 17.5927,26.8341 14.5,27.5C 11.2988,27.0759 8.2988,25.7425 5.5,23.5C 5.5,22.5 5.5,21.5 5.5,20.5C 4.5,20.5 3.5,20.5 2.5,20.5C 1.16667,16.5 1.16667,12.5 2.5,8.5C 3.5,8.5 4.5,8.5 5.5,8.5C 5.5,7.5 5.5,6.5 5.5,5.5C 6.5,5.5 7.5,5.5 8.5,5.5C 8.38021,2.79515 9.38021,2.12849 11.5,3.5C 12.5223,3.14451 13.189,2.47784 13.5,1.5 Z"/></g>
<g><path style="opacity:1" fill="#f5ce85" d="M 10.5,6.5 C 22.1327,6.267 25.1327,11.1003 19.5,21C 9.95142,24.1262 5.78475,20.6262 7,10.5C 8.37561,9.29493 9.54227,7.9616 10.5,6.5 Z"/></g>
</svg>
