<?xml version="1.0" encoding="UTF-8"?>
<svg width="20px" height="20px" viewBox="0 0 16 16" version="1.1" xmlns="http://www.w3.org/2000/svg" xmlns:xlink="http://www.w3.org/1999/xlink">
    <!-- Generator: Sketch 60 (88103) - https://sketch.com -->
    <title>Icons/visible Copy 15</title>
    <desc>Created with Sketch.</desc>
    <g id="Page-1" stroke="none" stroke-width="1" fill="none" fill-rule="evenodd">
        <g id="Иконки" transform="translate(-98.000000, -183.000000)" fill="#95969E" fill-rule="nonzero">
            <g id="Icons/close" transform="translate(94.000000, 179.000000)">
                <path d="M19.1464466,4.14644661 C19.3417088,3.95118446 19.6582912,3.95118446 19.8535534,4.14644661 C20.0271197,4.32001296 20.0464049,4.58943736 19.9114088,4.7843055 L19.8535534,4.85355339 L4.85355339,19.8535534 C4.65829124,20.0488155 4.34170876,20.0488155 4.14644661,19.8535534 C3.97288026,19.679987 3.95359511,19.4105626 4.08859116,19.2156945 L4.14644661,19.1464466 L19.1464466,4.14644661 Z" id="Path-3"></path>
                <path d="M19.1464466,4.14644661 C19.3417088,3.95118446 19.6582912,3.95118446 19.8535534,4.14644661 C20.0271197,4.32001296 20.0464049,4.58943736 19.9114088,4.7843055 L19.8535534,4.85355339 L4.85355339,19.8535534 C4.65829124,20.0488155 4.34170876,20.0488155 4.14644661,19.8535534 C3.97288026,19.679987 3.95359511,19.4105626 4.08859116,19.2156945 L4.14644661,19.1464466 L19.1464466,4.14644661 Z" id="Path-3-Copy" transform="translate(12.000000, 12.000000) scale(-1, 1) translate(-12.000000, -12.000000) "></path>
            </g>
        </g>
    </g>
</svg>