<svg width="30px" height="30px" viewBox="0 0 141 142" fill="none" xmlns="http://www.w3.org/2000/svg">
<path d="M8 71V126C8 130.418 11.5817 134 16 134H55.6863C62.8135 134 66.3829 125.383 61.3431 120.343L49.3431 108.343C47.8429 106.843 47 104.808 47 102.686V94.8137C47 92.692 47.8429 90.6571 49.3431 89.1569L70.1569 68.3431C71.6571 66.8429 72.5 64.808 72.5 62.6863V57.5C72.5 53.0817 68.9183 49.5 64.5 49.5H16C11.5817 49.5 8 45.9183 8 41.5V16C8 11.5817 11.5817 8 16 8H125.5C129.918 8 133.5 11.5817 133.5 16V126C133.5 130.418 129.918 134 125.5 134H118.814C116.692 134 114.657 133.157 113.157 131.657L87.5 106L83.3431 101.843C81.8429 100.343 81 98.308 81 96.1863V94.8137C81 92.692 81.8429 90.6571 83.3431 89.1569L104.157 68.3431C105.657 66.8429 106.5 64.808 106.5 62.6863V37C106.5 32.5817 102.918 29 98.5 29H33.5" stroke="#5ef6ff" stroke-width="15"/>
</svg>
