<?xml version="1.0" encoding="UTF-8"?>
<svg width="20px" height="14px" viewBox="0 0 20 14" version="1.1" xmlns="http://www.w3.org/2000/svg" xmlns:xlink="http://www.w3.org/1999/xlink">
    <!-- Generator: Sketch 60 (88103) - https://sketch.com -->
    <title>Icons/visible</title>
    <desc>Created with Sketch.</desc>
    <g id="Page-1" stroke="none" stroke-width="1" fill="none" fill-rule="evenodd">
        <g id="Иконки" transform="translate(-52.000000, -96.000000)" stroke="#95969E">
            <g id="Icons/visible" transform="translate(50.000000, 91.000000)">
                <path d="M12,18.5 C15.3437551,18.5 18.4133225,16.4475058 21.2189105,12.2791379 C21.3325108,12.1103601 21.3325106,11.8895773 21.2189099,11.7207997 C18.4132973,7.55247249 15.3437373,5.5 12,5.5 C8.65624487,5.5 5.58667755,7.55249425 2.78108952,11.7208621 C2.66748921,11.8896399 2.66748943,12.1104227 2.78109006,12.2792003 C5.58670268,16.4475275 8.65626267,18.5 12,18.5 Z" id="Oval"></path>
                <path d="M12,8 C9.790861,8 8,9.790861 8,12 C8,14.209139 9.790861,16 12,16 C14.209139,16 16,14.209139 16,12" id="Path" stroke-linecap="round"></path>
                <circle id="Oval-Copy" cx="12" cy="12" r="1.5"></circle>
            </g>
        </g>
    </g>
</svg>