<?xml version="1.0" encoding="UTF-8"?>
<svg width="14px" height="14px" viewBox="0 0 14 14" version="1.1" xmlns="http://www.w3.org/2000/svg" xmlns:xlink="http://www.w3.org/1999/xlink">
    <!-- Generator: Sketch 60 (88103) - https://sketch.com -->
    <title>Combined Shape</title>
    <desc>Created with Sketch.</desc>
    <g id="Page-1" stroke="none" stroke-width="1" fill="none" fill-rule="evenodd">
        <g id="Иконки" transform="translate(-442.000000, -123.000000)" fill="#FFFFFF" fill-rule="nonzero">
            <g id="Icons/14x14-white/forward" transform="translate(442.000000, 123.000000)">
                <path d="M7.61289944,0.209704612 L7.70710678,0.292893219 L13.7071068,6.29289322 C14.0675907,6.65337718 14.0953203,7.22060824 13.7902954,7.61289944 L13.7071068,7.70710678 L7.70710678,13.7071068 C7.31658249,14.0976311 6.68341751,14.0976311 6.29289322,13.7071068 C5.93240926,13.3466228 5.90467972,12.7793918 6.20970461,12.3871006 L6.29289322,12.2928932 L11.585,7 L6.29289322,1.70710678 C5.93240926,1.34662282 5.90467972,0.779391764 6.20970461,0.387100557 L6.29289322,0.292893219 C6.65337718,-0.0675907428 7.22060824,-0.0953202783 7.61289944,0.209704612 Z M1.61289944,0.209704612 L1.70710678,0.292893219 L7.70710678,6.29289322 C8.06759074,6.65337718 8.09532028,7.22060824 7.79029539,7.61289944 L7.70710678,7.70710678 L1.70710678,13.7071068 C1.31658249,14.0976311 0.683417511,14.0976311 0.292893219,13.7071068 C-0.0675907428,13.3466228 -0.0953202783,12.7793918 0.209704612,12.3871006 L0.292893219,12.2928932 L5.585,7 L0.292893219,1.70710678 C-0.0675907428,1.34662282 -0.0953202783,0.779391764 0.209704612,0.387100557 L0.292893219,0.292893219 C0.65337718,-0.0675907428 1.22060824,-0.0953202783 1.61289944,0.209704612 Z" id="Combined-Shape"></path>
            </g>
        </g>
    </g>
</svg>